<?xml version="1.0" encoding="utf-8"?>
<svg xmlns="http://www.w3.org/2000/svg"
	xmlns:xlink="http://www.w3.org/1999/xlink"
	width="37px" height="42px">
<path fill="rgb(225,225,223)" fill-rule="evenodd" d="M 25.48 15.99C 25.48 15.99 33.41 2.09 33.41 2.09 33.41 2.09 17.5 2.12 17.5 2.12 17.5 2.12 25.48 15.99 25.48 15.99M 25.49 20.17C 25.49 20.17 13.9 0.04 13.9 0.04 13.9 0.04 37.01-0 37.01-0 37.01-0 25.49 20.17 25.49 20.17 25.49 20.17 25.49 20.17 25.49 20.17Z"/>
<path fill="rgb(225,225,223)" fill-rule="evenodd" d="M 19.52 18.42C 19.52 18.42 11.61 4.51 11.61 4.51 11.61 4.51 3.6 18.37 3.6 18.37 3.6 18.37 19.52 18.42 19.52 18.42M 23.11 20.52C 23.11 20.52-0 20.44-0 20.44-0 20.44 11.62 0.32 11.62 0.32 11.62 0.32 23.11 20.52 23.11 20.52 23.11 20.52 23.11 20.52 23.11 20.52Z"/>
<path fill="rgb(225,225,223)" fill-rule="evenodd" d="M 33.35 39.9C 33.35 39.9 25.44 25.99 25.44 25.99 25.44 25.99 17.44 39.85 17.44 39.85 17.44 39.85 33.35 39.9 33.35 39.9M 36.94 42C 36.94 42 13.83 41.92 13.83 41.92 13.83 41.92 25.46 21.8 25.46 21.8 25.46 21.8 36.94 42 36.94 42 36.94 42 36.94 42 36.94 42Z"/>
<path fill="rgb(225,225,223)" fill-rule="evenodd" d="M 11.66 37.73C 11.66 37.73 19.65 23.78 19.65 23.78 19.65 23.78 3.76 23.72 3.76 23.72 3.76 23.72 11.66 37.73 11.66 37.73M 11.64 41.95C 11.64 41.95 0.19 21.63 0.19 21.63 0.19 21.63 23.24 21.71 23.24 21.71 23.24 21.71 11.64 41.95 11.64 41.95 11.64 41.95 11.64 41.95 11.64 41.95Z"/>
</svg>