<?xml version="1.0" encoding="utf-8"?>
<svg xmlns="http://www.w3.org/2000/svg"
	xmlns:xlink="http://www.w3.org/1999/xlink"
	width="67px" height="32px">
<path fill="rgb(153,41,31)" fill-rule="evenodd" d="M 63 20C 63 20 4 20 4 20 1.79 20-0 18.21-0 16-0 13.79 1.79 12 4 12 4 12 63 12 63 12 65.21 12 67 13.79 67 16 67 18.21 65.21 20 63 20ZM 63 8C 63 8 4 8 4 8 1.79 8-0 6.21-0 4-0 1.79 1.79 0 4 0 4 0 63 0 63 0 65.21 0 67 1.79 67 4 67 6.21 65.21 8 63 8ZM 4 24C 4 24 63 24 63 24 65.21 24 67 25.79 67 28 67 30.21 65.21 32 63 32 63 32 4 32 4 32 1.79 32-0 30.21-0 28-0 25.79 1.79 24 4 24Z"/>
</svg>